<mxfile host="app.diagrams.net" modified="2021-10-27T06:13:27.297Z" agent="5.0 (Macintosh; Intel Mac OS X 10_15_7) AppleWebKit/537.36 (KHTML, like Gecko) Chrome/95.0.4638.54 Safari/537.36" etag="xSBO5GiwWGnhTy731r0r" version="15.5.9" type="github">
  <diagram id="6oRqC5J5QUTpXc28B8BL" name="Page-1">
    <mxGraphModel dx="1186" dy="506" grid="1" gridSize="10" guides="1" tooltips="1" connect="1" arrows="1" fold="1" page="1" pageScale="1" pageWidth="827" pageHeight="1169" math="0" shadow="0">
      <root>
        <mxCell id="0" />
        <mxCell id="1" parent="0" />
      </root>
    </mxGraphModel>
  </diagram>
</mxfile>
